# xmcd
#
# Track frame offsets: 
#        150
#        12139
#        23511
#        34800
#        48304
#        58879
#        70154
#        82243
#        93640
#        107657
#        121556
#        132926
#        146159
#        157668
#        171927
#        185804
#        197460
#        211460
#        224543
#        238020
#
# Disc length: 3342 seconds
#
# Revision: 1
# Processed by: cddbd v1.5.2PL0 Copyright (c) Steve Scherf et al.
# Submitted via: ExactAudioCopyFreeDBPlugin 1.0
#
DISCID=1d0d0c14
DTITLE=Not Now Music - A Stack Of Blues
DYEAR=2016
DGENRE=Blues
TTITLE0=Freddy King - Hide Away
TTITLE1=Earl Hooker - That Man
TTITLE2=Albert King - Need You By My Side
TTITLE3=Guitar Slim - The Things That I Used To Do
TTITLE4=Eddie 'Blues Man' Kirkland - Down On My Knees
TTITLE5=B.B. King - Quit My Baby
TTITLE6=Muddy Waters - You Shook Me
TTITLE7=Lonesome Sundown - Lost Without Love
TTITLE8=Elmore James - Dust My Blues
TTITLE9=Bo Diddley - Before You Accuse Me
TTITLE10=John Lee Hooker - Baby I'm Gonna Miss You
TTITLE11=Jimmy Reed - Lets Get Together
TTITLE12=Clarence 'Gatemouth' Brown - Okie Dokie Stomp
TTITLE13=Lowell Fulson - Reconsider Baby
TTITLE14=Howlin' Wolf - The Wolf Is At Your Door
TTITLE15=Lightnin' Slim - It's Mighty Crazy
TTITLE16=Shakey Jake - Love My Baby
TTITLE17=Tarheel Slim - Number 9 Traiin
TTITLE18=Lightnin' Hopkins - Tell Me Pretty Mama
TTITLE19=Buddy Guy - When My Left Eye Jumps
EXTD=YEAR: 2016
EXTT0=
EXTT1=
EXTT2=
EXTT3=
EXTT4=
EXTT5=
EXTT6=
EXTT7=
EXTT8=
EXTT9=
EXTT10=
EXTT11=
EXTT12=
EXTT13=
EXTT14=
EXTT15=
EXTT16=
EXTT17=
EXTT18=
EXTT19=
PLAYORDER=
